<svg xmlns="http://www.w3.org/2000/svg" width="760" height="980" viewBox="0 0 760 980">
  <rect width="760" height="980" fill="#ffffff"/>
  <rect width="760" height="116" fill="#0b1d2b"/>
  <text x="52" y="50" fill="#ffffff" font-family="Arial, Helvetica, sans-serif" font-size="28" font-weight="700">CareArena Health Report</text>
  <text x="52" y="80" fill="#ffffff" font-family="Arial, Helvetica, sans-serif" font-size="12">Generated: 5/26/2026, 3:06:02 PM</text>
  <text x="430" y="80" fill="#ffffff" font-family="Arial, Helvetica, sans-serif" font-size="12">Patient Email: rahul@gmail.com</text>

  <g font-family="Arial, Helvetica, sans-serif">
    <rect x="52" y="142" width="656" height="40" rx="8" fill="#eef8f5"/>
    <text x="68" y="167" fill="#0d4b42" font-size="17" font-weight="700">Patient Details</text>
    <text x="68" y="214" fill="#59636d" font-size="13" font-weight="700">Full Name:</text>
    <text x="220" y="214" fill="#0b1d2b" font-size="13">Rahul</text>
    <text x="68" y="242" fill="#59636d" font-size="13" font-weight="700">Age:</text>
    <text x="220" y="242" fill="#0b1d2b" font-size="13">23</text>
    <text x="68" y="270" fill="#59636d" font-size="13" font-weight="700">Gender:</text>
    <text x="220" y="270" fill="#0b1d2b" font-size="13">Male</text>
    <text x="68" y="298" fill="#59636d" font-size="13" font-weight="700">Condition:</text>
    <text x="220" y="298" fill="#0b1d2b" font-size="13">Diabetes</text>
    <text x="68" y="326" fill="#59636d" font-size="13" font-weight="700">Doctor:</text>
    <text x="220" y="326" fill="#0b1d2b" font-size="13">Dr. Priya Reddy</text>

    <rect x="52" y="352" width="656" height="40" rx="8" fill="#eef8f5"/>
    <text x="68" y="377" fill="#0d4b42" font-size="17" font-weight="700">Latest Vitals</text>
    <text x="68" y="424" fill="#59636d" font-size="13" font-weight="700">Blood Pressure:</text>
    <text x="220" y="424" fill="#0b1d2b" font-size="13">108/82 mmHg</text>
    <text x="68" y="452" fill="#59636d" font-size="13" font-weight="700">Glucose:</text>
    <text x="220" y="452" fill="#0b1d2b" font-size="13">133 mg/dL</text>
    <text x="68" y="480" fill="#59636d" font-size="13" font-weight="700">Heart Rate:</text>
    <text x="220" y="480" fill="#0b1d2b" font-size="13">90 BPM</text>
    <text x="68" y="508" fill="#59636d" font-size="13" font-weight="700">Temperature:</text>
    <text x="220" y="508" fill="#0b1d2b" font-size="13">100.4 F</text>

    <rect x="52" y="534" width="656" height="40" rx="8" fill="#eef8f5"/>
    <text x="68" y="559" fill="#0d4b42" font-size="17" font-weight="700">Health Summary</text>
    <text x="68" y="606" fill="#59636d" font-size="13" font-weight="700">Current Status:</text>
    <text x="220" y="606" fill="#0b1d2b" font-size="13">Needs monitoring</text>
    <text x="68" y="634" fill="#59636d" font-size="13" font-weight="700">Medication Adherence:</text>
    <text x="220" y="634" fill="#0b1d2b" font-size="13">0%</text>
    <text x="68" y="662" fill="#59636d" font-size="13" font-weight="700">Active Alerts:</text>
    <text x="220" y="662" fill="#0b1d2b" font-size="13">1</text>

    <rect x="52" y="700" width="656" height="40" rx="8" fill="#eef8f5"/>
    <text x="68" y="725" fill="#0d4b42" font-size="17" font-weight="700">Vitals History</text>
    <rect x="68" y="770" width="624" height="30" rx="5" fill="#0b1d2b"/>
    <text x="86" y="790" fill="#ffffff" font-size="11" font-weight="700">Date</text>
    <text x="214" y="790" fill="#ffffff" font-size="11" font-weight="700">BP</text>
    <text x="344" y="790" fill="#ffffff" font-size="11" font-weight="700">Glucose</text>
    <text x="488" y="790" fill="#ffffff" font-size="11" font-weight="700">Heart Rate</text>
    <text x="620" y="790" fill="#ffffff" font-size="11" font-weight="700">Temp</text>

    <rect x="68" y="800" width="624" height="30" fill="#fbf8f5"/>
    <text x="86" y="820" fill="#0b1d2b" font-size="11">5/26/2026</text>
    <text x="214" y="820" fill="#0b1d2b" font-size="11">108/82</text>
    <text x="344" y="820" fill="#0b1d2b" font-size="11">133</text>
    <text x="488" y="820" fill="#0b1d2b" font-size="11">90</text>
    <text x="620" y="820" fill="#0b1d2b" font-size="11">100.4</text>

    <rect x="68" y="830" width="624" height="30" fill="#f5faf8"/>
    <text x="86" y="850" fill="#0b1d2b" font-size="11">5/9/2026</text>
    <text x="214" y="850" fill="#0b1d2b" font-size="11">130/82</text>
    <text x="344" y="850" fill="#0b1d2b" font-size="11">171</text>
    <text x="488" y="850" fill="#0b1d2b" font-size="11">88</text>
    <text x="620" y="850" fill="#0b1d2b" font-size="11">98.8</text>

    <rect x="68" y="884" width="624" height="40" rx="8" fill="#eef8f5"/>
    <text x="86" y="909" fill="#0d4b42" font-size="17" font-weight="700">Alerts, Medication Summary, and Doctor Notes continue in the PDF report</text>
  </g>
</svg>
